<?xml version="1.0" encoding="UTF-8" standalone="no"?>
<!-- Created with Inkscape (http://www.inkscape.org/) -->

<svg
   xmlns:dc="http://purl.org/dc/elements/1.1/"
   xmlns:cc="http://creativecommons.org/ns#"
   xmlns:rdf="http://www.w3.org/1999/02/22-rdf-syntax-ns#"
   xmlns:svg="http://www.w3.org/2000/svg"
   xmlns="http://www.w3.org/2000/svg"
   xmlns:sodipodi="http://sodipodi.sourceforge.net/DTD/sodipodi-0.dtd"
   xmlns:inkscape="http://www.inkscape.org/namespaces/inkscape"
   version="1.1"
   id="svg815"
   xml:space="preserve"
   width="793.33331"
   height="1122.6667"
   viewBox="0 0 793.33331 1122.6667"
   sodipodi:docname="MPC_diagram_text.svg"
   inkscape:version="0.92.3 (2405546, 2018-03-11)"><metadata
     id="metadata821"><rdf:RDF><cc:Work
         rdf:about=""><dc:format>image/svg+xml</dc:format><dc:type
           rdf:resource="http://purl.org/dc/dcmitype/StillImage" /><dc:title></dc:title></cc:Work></rdf:RDF></metadata><defs
     id="defs819"><marker
       inkscape:stockid="Arrow2Lend"
       orient="auto"
       refY="0.0"
       refX="0.0"
       id="Arrow2Lend"
       style="overflow:visible;"
       inkscape:isstock="true"><path
         id="path1198"
         style="fill-rule:evenodd;stroke-width:0.625;stroke-linejoin:round;stroke:#000000;stroke-opacity:1;fill:#000000;fill-opacity:1"
         d="M 8.7185878,4.0337352 L -2.2072895,0.016013256 L 8.7185884,-4.0017078 C 6.9730900,-1.6296469 6.9831476,1.6157441 8.7185878,4.0337352 z "
         transform="scale(1.1) rotate(180) translate(1,0)" /></marker><marker
       inkscape:stockid="Arrow2Lstart"
       orient="auto"
       refY="0.0"
       refX="0.0"
       id="marker1501"
       style="overflow:visible"
       inkscape:isstock="true"><path
         id="path1499"
         style="fill-rule:evenodd;stroke-width:0.625;stroke-linejoin:round;stroke:#000000;stroke-opacity:1;fill:#000000;fill-opacity:1"
         d="M 8.7185878,4.0337352 L -2.2072895,0.016013256 L 8.7185884,-4.0017078 C 6.9730900,-1.6296469 6.9831476,1.6157441 8.7185878,4.0337352 z "
         transform="scale(1.1) translate(1,0)" /></marker><marker
       inkscape:stockid="Arrow2Lstart"
       orient="auto"
       refY="0.0"
       refX="0.0"
       id="Arrow2Lstart"
       style="overflow:visible"
       inkscape:isstock="true"><path
         id="path1195"
         style="fill-rule:evenodd;stroke-width:0.625;stroke-linejoin:round;stroke:#000000;stroke-opacity:1;fill:#000000;fill-opacity:1"
         d="M 8.7185878,4.0337352 L -2.2072895,0.016013256 L 8.7185884,-4.0017078 C 6.9730900,-1.6296469 6.9831476,1.6157441 8.7185878,4.0337352 z "
         transform="scale(1.1) translate(1,0)" /></marker><marker
       inkscape:stockid="Tail"
       orient="auto"
       refY="0.0"
       refX="0.0"
       id="Tail"
       style="overflow:visible"
       inkscape:isstock="true"><g
         id="g1225"
         transform="scale(-1.2)"><path
           id="path1213"
           d="M -3.8048674,-3.9585227 L 0.54352094,0"
           style="fill:none;fill-rule:evenodd;stroke:#000000;stroke-width:0.8;stroke-linecap:round" /><path
           id="path1215"
           d="M -1.2866832,-3.9585227 L 3.0617053,0"
           style="fill:none;fill-rule:evenodd;stroke:#000000;stroke-width:0.8;stroke-linecap:round" /><path
           id="path1217"
           d="M 1.3053582,-3.9585227 L 5.6537466,0"
           style="fill:none;fill-rule:evenodd;stroke:#000000;stroke-width:0.8;stroke-linecap:round" /><path
           id="path1219"
           d="M -3.8048674,4.1775838 L 0.54352094,0.21974226"
           style="fill:none;fill-rule:evenodd;stroke:#000000;stroke-width:0.8;stroke-linecap:round" /><path
           id="path1221"
           d="M -1.2866832,4.1775838 L 3.0617053,0.21974226"
           style="fill:none;fill-rule:evenodd;stroke:#000000;stroke-width:0.8;stroke-linecap:round" /><path
           id="path1223"
           d="M 1.3053582,4.1775838 L 5.6537466,0.21974226"
           style="fill:none;fill-rule:evenodd;stroke:#000000;stroke-width:0.8;stroke-linecap:round" /></g></marker><marker
       inkscape:stockid="Arrow2Send"
       orient="auto"
       refY="0.0"
       refX="0.0"
       id="Arrow2Send"
       style="overflow:visible;"
       inkscape:isstock="true"><path
         id="path1210"
         style="fill-rule:evenodd;stroke-width:0.62500000;stroke-linejoin:round;"
         d="M 8.7185878,4.0337352 L -2.2072895,0.016013256 L 8.7185884,-4.0017078 C 6.9730900,-1.6296469 6.9831476,1.6157441 8.7185878,4.0337352 z "
         transform="scale(0.3) rotate(180) translate(-2.3,0)" /></marker><clipPath
       clipPathUnits="userSpaceOnUse"
       id="clipPath833"><path
         d="M -1.27e-6,-5.09e-6 H 685.99997 V 361.00004 H -1.27e-6 Z"
         id="path831"
         inkscape:connector-curvature="0" /></clipPath><marker
       inkscape:stockid="Arrow2Lstart"
       orient="auto"
       refY="0"
       refX="0"
       id="marker1501-0"
       style="overflow:visible"
       inkscape:isstock="true"><path
         inkscape:connector-curvature="0"
         id="path1499-6"
         style="fill:#000000;fill-opacity:1;fill-rule:evenodd;stroke:#000000;stroke-width:0.625;stroke-linejoin:round;stroke-opacity:1"
         d="M 8.7185878,4.0337352 -2.2072895,0.01601326 8.7185884,-4.0017078 c -1.7454984,2.3720609 -1.7354408,5.6174519 -6e-7,8.035443 z"
         transform="matrix(1.1,0,0,1.1,1.1,0)" /></marker><marker
       inkscape:stockid="Arrow2Lend"
       orient="auto"
       refY="0"
       refX="0"
       id="Arrow2Lend-3"
       style="overflow:visible"
       inkscape:isstock="true"><path
         inkscape:connector-curvature="0"
         id="path1198-5"
         style="fill:#000000;fill-opacity:1;fill-rule:evenodd;stroke:#000000;stroke-width:0.625;stroke-linejoin:round;stroke-opacity:1"
         d="M 8.7185878,4.0337352 -2.2072895,0.01601326 8.7185884,-4.0017078 c -1.7454984,2.3720609 -1.7354408,5.6174519 -6e-7,8.035443 z"
         transform="matrix(-1.1,0,0,-1.1,-1.1,0)" /></marker></defs><sodipodi:namedview
     pagecolor="#ffffff"
     bordercolor="#666666"
     borderopacity="1"
     objecttolerance="10"
     gridtolerance="10"
     guidetolerance="10"
     inkscape:pageopacity="0"
     inkscape:pageshadow="2"
     inkscape:window-width="1920"
     inkscape:window-height="1017"
     id="namedview817"
     showgrid="false"
     inkscape:zoom="1.0682182"
     inkscape:cx="618.22253"
     inkscape:cy="487.12927"
     inkscape:window-x="3278"
     inkscape:window-y="5"
     inkscape:window-maximized="1"
     inkscape:current-layer="g825" /><g
     id="g823"
     inkscape:groupmode="layer"
     inkscape:label="MPC_diagram"
     transform="matrix(1.3333333,0,0,-1.3333333,0,1122.6667)"><g
       id="g825"
       transform="matrix(0.125,0,0,-0.125,0,842)"><g
         id="g917" /><g
         id="g997"
         transform="matrix(6,0,0,6,323.10221,2284.5589)"><path
           d="m 89,203.39999 h 5.32"
           style="fill:none;stroke:#262626;stroke-width:0.66666698;stroke-linecap:square;stroke-linejoin:round;stroke-miterlimit:10;stroke-dasharray:none;stroke-opacity:1"
           id="path999"
           inkscape:connector-curvature="0" /></g><g
         id="g1037" /><g
         id="g1085"
         transform="matrix(6,0,0,6,323.10221,2284.5589)"><path
           d="m 89,203.39999 h 38 V 174 h 38 v 58.8 h 38 v -14.69999 h 38 V 247.5 h 38"
           style="fill:none;stroke:#000000;stroke-width:1.73333299;stroke-linecap:butt;stroke-linejoin:round;stroke-miterlimit:10;stroke-dasharray:none;stroke-opacity:1"
           id="path1087"
           inkscape:connector-curvature="0" /></g><g
         id="g1089"
         transform="matrix(6,0,0,6,323.10221,2284.5589)"><path
           d="m 89,115.2 38,-14.7 38,20.57999 38,8.82 38,-14.69999 38,-5.87999"
           style="fill:none;stroke:#ff0000;stroke-width:1.73333299;stroke-linecap:butt;stroke-linejoin:round;stroke-miterlimit:10;stroke-dasharray:none;stroke-opacity:1"
           id="path1091"
           inkscape:connector-curvature="0" /></g><g
         id="g1093"
         transform="matrix(6,0,0,6,857.10221,2975.7589)"><path
           d="M 4,0 C 4,-2.209139 2.209139,-4 0,-4 -2.209139,-4 -4,-2.209139 -4,0 -4,2.209139 -2.209139,4 0,4 2.209139,4 4,2.209139 4,0"
           style="fill:none;stroke:#ff0000;stroke-width:1.73333299;stroke-linecap:butt;stroke-linejoin:miter;stroke-miterlimit:10;stroke-dasharray:none;stroke-opacity:1"
           id="path1095"
           inkscape:connector-curvature="0" /></g><g
         id="g1097"
         transform="matrix(6,0,0,6,1085.1022,2887.5589)"><path
           d="M 4,0 C 4,-2.209139 2.209139,-4 0,-4 -2.209139,-4 -4,-2.209139 -4,0 -4,2.209139 -2.209139,4 0,4 2.209139,4 4,2.209139 4,0"
           style="fill:none;stroke:#ff0000;stroke-width:1.73333299;stroke-linecap:butt;stroke-linejoin:miter;stroke-miterlimit:10;stroke-dasharray:none;stroke-opacity:1"
           id="path1099"
           inkscape:connector-curvature="0" /></g><g
         id="g1101"
         transform="matrix(6,0,0,6,1313.1022,3011.0388)"><path
           d="M 4,0 C 4,-2.209139 2.209139,-4 0,-4 -2.209139,-4 -4,-2.209139 -4,0 -4,2.209139 -2.209139,4 0,4 2.209139,4 4,2.209139 4,0"
           style="fill:none;stroke:#ff0000;stroke-width:1.73333299;stroke-linecap:butt;stroke-linejoin:miter;stroke-miterlimit:10;stroke-dasharray:none;stroke-opacity:1"
           id="path1103"
           inkscape:connector-curvature="0" /></g><g
         id="g1105"
         transform="matrix(6,0,0,6,1541.1022,3063.9588)"><path
           d="M 4,0 C 4,-2.209139 2.209139,-4 0,-4 -2.209139,-4 -4,-2.209139 -4,0 -4,2.209139 -2.209139,4 0,4 2.209139,4 4,2.209139 4,0"
           style="fill:none;stroke:#ff0000;stroke-width:1.73333299;stroke-linecap:butt;stroke-linejoin:miter;stroke-miterlimit:10;stroke-dasharray:none;stroke-opacity:1"
           id="path1107"
           inkscape:connector-curvature="0" /></g><g
         id="g1109"
         transform="matrix(6,0,0,6,1769.1022,2975.7589)"><path
           d="M 4,0 C 4,-2.209139 2.209139,-4 0,-4 -2.209139,-4 -4,-2.209139 -4,0 -4,2.209139 -2.209139,4 0,4 2.209139,4 4,2.209139 4,0"
           style="fill:none;stroke:#ff0000;stroke-width:1.73333299;stroke-linecap:butt;stroke-linejoin:miter;stroke-miterlimit:10;stroke-dasharray:none;stroke-opacity:1"
           id="path1111"
           inkscape:connector-curvature="0" /></g><g
         id="g1113"
         transform="matrix(6,0,0,6,1997.1022,2940.4789)"><path
           d="M 4,0 C 4,-2.209139 2.209139,-4 0,-4 -2.209139,-4 -4,-2.209139 -4,0 -4,2.209139 -2.209139,4 0,4 2.209139,4 4,2.209139 4,0"
           style="fill:none;stroke:#ff0000;stroke-width:1.73333299;stroke-linecap:butt;stroke-linejoin:miter;stroke-miterlimit:10;stroke-dasharray:none;stroke-opacity:1"
           id="path1115"
           inkscape:connector-curvature="0" /></g><g
         id="g1121"
         transform="matrix(6,0,0,6,323.10221,2284.5589)"><path
           d="m 279,247.5 v 14.70001 h 38 v 14.69998 h 38 v 14.70002 h 38 v 14.69998 h 38 v 5.88 h 38 v 0 h 38 v 0 h 38 v 0 h 38 v 0 h 38"
           style="fill:none;stroke:#000000;stroke-width:1.73333299;stroke-linecap:butt;stroke-linejoin:bevel;stroke-miterlimit:1;stroke-dasharray:10, 6;stroke-dashoffset:0;stroke-opacity:1"
           id="path1123"
           inkscape:connector-curvature="0" /></g><g
         id="g1125"
         transform="matrix(6,0,0,6,323.10221,2284.5589)"><path
           d="m 89,41.700001 h 5.373734 5.373741 5.373745 5.37373 5.37374 5.37373 5.37374 5.37374 5.37373 5.37375 5.37373 5.37374 5.37373 5.37374 5.37373 5.37375 5.37373 5.37373 5.37375 5.37374 5.37373 5.37375 5.37373 5.37374 5.37373 5.37373 5.37375 5.37374 5.37374 5.37372 5.37374 5.37374 5.37372 5.37375 5.37375 5.37372 5.37375 5.37375 5.37371 5.37375 5.37375 5.37372 5.37375 5.37375 5.37372 5.37375 5.37374 5.37372 5.37375 5.37372 5.37375 5.37372 5.37374 5.37375 5.37372 5.37375 5.37375 5.37375 5.37372 5.37371 5.37375 5.37372 5.37378 5.37372 5.37375 5.37372 5.37375 5.37371 5.37375 5.37375 5.37375 5.37372 5.37375 5.37372 5.37374 5.37375 5.37375 5.37372 5.37375 5.37372 5.37372 5.37377 5.37372 5.37372 5.37372 5.37378 5.37372 5.37378 5.37371 5.37372 5.37372 5.37378 5.37372 5.37378 5.37372 5.37371 5.37372 5.37378 H 621"
           style="fill:none;stroke:#ff0000;stroke-width:1.60000002;stroke-linecap:butt;stroke-linejoin:round;stroke-miterlimit:10;stroke-dasharray:none;stroke-opacity:1"
           id="path1127"
           inkscape:connector-curvature="0" /></g><g
         id="g1129"
         transform="matrix(6,0,0,6,323.10221,2284.5589)"><path
           d="m 279,109.32001 38,-12.257426 38,-10.035545 38,-8.216385 38,-6.727021 38,-5.507621 38,-4.509247 38,-3.691879 38,-3.022641 38,-2.474746"
           style="fill:none;stroke:#ff0000;stroke-width:1.73333299;stroke-linecap:butt;stroke-linejoin:bevel;stroke-miterlimit:1;stroke-dasharray:10, 6;stroke-dashoffset:0;stroke-opacity:1"
           id="path1131"
           inkscape:connector-curvature="0" /></g><g
         id="g1133"
         transform="matrix(6,0,0,6,1997.1022,2940.4789)"><path
           d="M 4,0 C 4,-2.209139 2.209139,-4 0,-4 -2.209139,-4 -4,-2.209139 -4,0 -4,2.209139 -2.209139,4 0,4 2.209139,4 4,2.209139 4,0"
           style="fill:none;stroke:#ff0000;stroke-width:1.73333299;stroke-linecap:butt;stroke-linejoin:miter;stroke-miterlimit:10;stroke-dasharray:none;stroke-opacity:1"
           id="path1135"
           inkscape:connector-curvature="0" /></g><g
         id="g1137"
         transform="matrix(6,0,0,6,2225.1022,2866.9344)"><path
           d="M 4,0 C 4,-2.209139 2.209139,-4 0,-4 -2.209139,-4 -4,-2.209139 -4,0 -4,2.209139 -2.209139,4 0,4 2.209139,4 4,2.209139 4,0"
           style="fill:none;stroke:#ff0000;stroke-width:1.73333299;stroke-linecap:butt;stroke-linejoin:miter;stroke-miterlimit:10;stroke-dasharray:none;stroke-opacity:1"
           id="path1139"
           inkscape:connector-curvature="0" /></g><g
         id="g1141"
         transform="matrix(6,0,0,6,2453.1022,2806.7211)"><path
           d="M 4,0 C 4,-2.209139 2.209139,-4 0,-4 -2.209139,-4 -4,-2.209139 -4,0 -4,2.209139 -2.209139,4 0,4 2.209139,4 4,2.209139 4,0"
           style="fill:none;stroke:#ff0000;stroke-width:1.73333299;stroke-linecap:butt;stroke-linejoin:miter;stroke-miterlimit:10;stroke-dasharray:none;stroke-opacity:1"
           id="path1143"
           inkscape:connector-curvature="0" /></g><g
         id="g1145"
         transform="matrix(6,0,0,6,2681.1022,2757.4228)"><path
           d="M 4,0 C 4,-2.209139 2.209139,-4 0,-4 -2.209139,-4 -4,-2.209139 -4,0 -4,2.209139 -2.209139,4 0,4 2.209139,4 4,2.209139 4,0"
           style="fill:none;stroke:#ff0000;stroke-width:1.73333299;stroke-linecap:butt;stroke-linejoin:miter;stroke-miterlimit:10;stroke-dasharray:none;stroke-opacity:1"
           id="path1147"
           inkscape:connector-curvature="0" /></g><g
         id="g1149"
         transform="matrix(6,0,0,6,2909.1022,2717.0607)"><path
           d="M 4,0 C 4,-2.209139 2.209139,-4 0,-4 -2.209139,-4 -4,-2.209139 -4,0 -4,2.209139 -2.209139,4 0,4 2.209139,4 4,2.209139 4,0"
           style="fill:none;stroke:#ff0000;stroke-width:1.73333299;stroke-linecap:butt;stroke-linejoin:miter;stroke-miterlimit:10;stroke-dasharray:none;stroke-opacity:1"
           id="path1151"
           inkscape:connector-curvature="0" /></g><g
         id="g1153"
         transform="matrix(6,0,0,6,3137.1022,2684.0149)"><path
           d="M 4,0 C 4,-2.209139 2.209139,-4 0,-4 -2.209139,-4 -4,-2.209139 -4,0 -4,2.209139 -2.209139,4 0,4 2.209139,4 4,2.209139 4,0"
           style="fill:none;stroke:#ff0000;stroke-width:1.73333299;stroke-linecap:butt;stroke-linejoin:miter;stroke-miterlimit:10;stroke-dasharray:none;stroke-opacity:1"
           id="path1155"
           inkscape:connector-curvature="0" /></g><g
         id="g1157"
         transform="matrix(6,0,0,6,3365.1022,2656.9595)"><path
           d="M 4,0 C 4,-2.209139 2.209139,-4 0,-4 -2.209139,-4 -4,-2.209139 -4,0 -4,2.209139 -2.209139,4 0,4 2.209139,4 4,2.209139 4,0"
           style="fill:none;stroke:#ff0000;stroke-width:1.73333299;stroke-linecap:butt;stroke-linejoin:miter;stroke-miterlimit:10;stroke-dasharray:none;stroke-opacity:1"
           id="path1159"
           inkscape:connector-curvature="0" /></g><g
         id="g1161"
         transform="matrix(6,0,0,6,3593.1022,2634.8082)"><path
           d="M 4,0 C 4,-2.209139 2.209139,-4 0,-4 -2.209139,-4 -4,-2.209139 -4,0 -4,2.209139 -2.209139,4 0,4 2.209139,4 4,2.209139 4,0"
           style="fill:none;stroke:#ff0000;stroke-width:1.73333299;stroke-linecap:butt;stroke-linejoin:miter;stroke-miterlimit:10;stroke-dasharray:none;stroke-opacity:1"
           id="path1163"
           inkscape:connector-curvature="0" /></g><g
         id="g1165"
         transform="matrix(6,0,0,6,3821.1022,2616.6723)"><path
           d="M 4,0 C 4,-2.209139 2.209139,-4 0,-4 -2.209139,-4 -4,-2.209139 -4,0 -4,2.209139 -2.209139,4 0,4 2.209139,4 4,2.209139 4,0"
           style="fill:none;stroke:#ff0000;stroke-width:1.73333299;stroke-linecap:butt;stroke-linejoin:miter;stroke-miterlimit:10;stroke-dasharray:none;stroke-opacity:1"
           id="path1167"
           inkscape:connector-curvature="0" /></g><g
         id="g1169"
         transform="matrix(6,0,0,6,4049.1022,2601.8239)"><path
           d="M 4,0 C 4,-2.209139 2.209139,-4 0,-4 -2.209139,-4 -4,-2.209139 -4,0 -4,2.209139 -2.209139,4 0,4 2.209139,4 4,2.209139 4,0"
           style="fill:none;stroke:#ff0000;stroke-width:1.73333299;stroke-linecap:butt;stroke-linejoin:miter;stroke-miterlimit:10;stroke-dasharray:none;stroke-opacity:1"
           id="path1171"
           inkscape:connector-curvature="0" /></g><text
         xml:space="preserve"
         style="font-style:normal;font-variant:normal;font-weight:normal;font-stretch:normal;font-size:96px;line-height:1.25;font-family:sans-serif;-inkscape-font-specification:'sans-serif, Normal';font-variant-ligatures:normal;font-variant-caps:normal;font-variant-numeric:normal;font-feature-settings:normal;text-align:start;letter-spacing:0px;word-spacing:0px;writing-mode:lr-tb;text-anchor:start;fill:#000000;fill-opacity:1;stroke:none;stroke-width:6"
         x="3320.3398"
         y="2502.1697"
         id="text1175"><tspan
           sodipodi:role="line"
           id="tspan1173"
           x="3320.3398"
           y="2502.1697"
           style="font-style:normal;font-variant:normal;font-weight:normal;font-stretch:normal;font-size:96px;font-family:sans-serif;-inkscape-font-specification:'sans-serif, Normal';font-variant-ligatures:normal;font-variant-caps:normal;font-variant-numeric:normal;font-feature-settings:normal;text-align:start;writing-mode:lr-tb;text-anchor:start;stroke-width:6">Desired output</tspan></text>
<text
         xml:space="preserve"
         style="font-style:normal;font-variant:normal;font-weight:normal;font-stretch:normal;font-size:96px;line-height:1.25;font-family:sans-serif;-inkscape-font-specification:'sans-serif, Normal';font-variant-ligatures:normal;font-variant-caps:normal;font-variant-numeric:normal;font-feature-settings:normal;text-align:start;letter-spacing:0px;word-spacing:0px;writing-mode:lr-tb;text-anchor:start;fill:#000000;fill-opacity:1;stroke:none;stroke-width:6"
         x="1366.5404"
         y="2203.303"
         id="text1175-6"><tspan
           sodipodi:role="line"
           id="tspan1173-3"
           x="1366.5404"
           y="2203.303"
           style="font-style:normal;font-variant:normal;font-weight:normal;font-stretch:normal;font-size:96px;font-family:sans-serif;-inkscape-font-specification:'sans-serif, Normal';font-variant-ligatures:normal;font-variant-caps:normal;font-variant-numeric:normal;font-feature-settings:normal;text-align:start;writing-mode:lr-tb;text-anchor:start;stroke-width:6">Known past</tspan></text>
<text
         xml:space="preserve"
         style="font-style:normal;font-variant:normal;font-weight:normal;font-stretch:normal;font-size:96px;line-height:1.25;font-family:sans-serif;-inkscape-font-specification:'sans-serif, Normal';font-variant-ligatures:normal;font-variant-caps:normal;font-variant-numeric:normal;font-feature-settings:normal;text-align:start;letter-spacing:0px;word-spacing:0px;writing-mode:lr-tb;text-anchor:start;fill:#000000;fill-opacity:1;stroke:none;stroke-width:6"
         x="2065.8142"
         y="2207.2747"
         id="text1175-0"><tspan
           sodipodi:role="line"
           id="tspan1173-7"
           x="2065.8142"
           y="2207.2747"
           style="font-style:normal;font-variant:normal;font-weight:normal;font-stretch:normal;font-size:96px;font-family:sans-serif;-inkscape-font-specification:'sans-serif, Normal';font-variant-ligatures:normal;font-variant-caps:normal;font-variant-numeric:normal;font-feature-settings:normal;text-align:start;writing-mode:lr-tb;text-anchor:start;stroke-width:6">Predicted future</tspan></text>
<path
         style="fill:none;stroke:#000000;stroke-width:6px;stroke-linecap:butt;stroke-linejoin:miter;stroke-opacity:1;marker-start:url(#Arrow2Lstart)"
         d="M 1996.686,2033.5093 V 4210.0001"
         id="path1475"
         inkscape:connector-curvature="0" /><path
         style="fill:none;stroke:#000000;stroke-width:6.17103672px;stroke-linecap:butt;stroke-linejoin:miter;stroke-opacity:1;marker-start:url(#marker1501);marker-end:url(#Arrow2Lend)"
         d="M 1265.7538,2236.0659 H 2954.7012"
         id="path1497"
         inkscape:connector-curvature="0" /><path
         style="fill:none;stroke:#000000;stroke-width:6.23622064;stroke-linecap:butt;stroke-linejoin:miter;stroke-opacity:1;stroke-miterlimit:4;stroke-dasharray:none"
         d="M 851.44156,4213.1227 H 4057.5778"
         id="path1497-0"
         inkscape:connector-curvature="0" /><text
         xml:space="preserve"
         style="font-style:normal;font-variant:normal;font-weight:normal;font-stretch:normal;font-size:96px;line-height:1.25;font-family:sans-serif;-inkscape-font-specification:'sans-serif, Normal';font-variant-ligatures:normal;font-variant-caps:normal;font-variant-numeric:normal;font-feature-settings:normal;text-align:start;letter-spacing:0px;word-spacing:0px;writing-mode:lr-tb;text-anchor:start;fill:#000000;fill-opacity:1;stroke:none;stroke-width:6"
         x="857.48383"
         y="3819.9541"
         id="text1175-1"><tspan
           sodipodi:role="line"
           id="tspan1173-0"
           x="857.48383"
           y="3819.9541"
           style="font-style:normal;font-variant:normal;font-weight:normal;font-stretch:normal;font-size:96px;font-family:sans-serif;-inkscape-font-specification:'sans-serif, Normal';font-variant-ligatures:normal;font-variant-caps:normal;font-variant-numeric:normal;font-feature-settings:normal;text-align:start;writing-mode:lr-tb;text-anchor:start;stroke-width:6">Closed-loop input</tspan></text>
<text
         xml:space="preserve"
         style="font-style:normal;font-variant:normal;font-weight:normal;font-stretch:normal;font-size:96px;line-height:1.25;font-family:sans-serif;-inkscape-font-specification:'sans-serif, Normal';font-variant-ligatures:normal;font-variant-caps:normal;font-variant-numeric:normal;font-feature-settings:normal;text-align:start;letter-spacing:0px;word-spacing:0px;writing-mode:lr-tb;text-anchor:start;fill:#000000;fill-opacity:1;stroke:none;stroke-width:6"
         x="850.79028"
         y="2818.9163"
         id="text1175-1-3"><tspan
           sodipodi:role="line"
           id="tspan1173-0-3"
           x="850.79028"
           y="2818.9163"
           style="font-style:normal;font-variant:normal;font-weight:normal;font-stretch:normal;font-size:96px;font-family:sans-serif;-inkscape-font-specification:'sans-serif, Normal';font-variant-ligatures:normal;font-variant-caps:normal;font-variant-numeric:normal;font-feature-settings:normal;text-align:start;writing-mode:lr-tb;text-anchor:start;stroke-width:6">Closed-loop output</tspan></text>
<text
         xml:space="preserve"
         style="font-style:normal;font-variant:normal;font-weight:normal;font-stretch:normal;font-size:96px;line-height:1.25;font-family:sans-serif;-inkscape-font-specification:'sans-serif, Normal';font-variant-ligatures:normal;font-variant-caps:normal;font-variant-numeric:normal;font-feature-settings:normal;text-align:start;letter-spacing:0px;word-spacing:0px;writing-mode:lr-tb;text-anchor:start;fill:#000000;fill-opacity:1;stroke:none;stroke-width:6"
         x="2082.0166"
         y="3795.9541"
         id="text1175-1-0"><tspan
           sodipodi:role="line"
           id="tspan1173-0-8"
           x="2082.0166"
           y="3795.9541"
           style="font-style:normal;font-variant:normal;font-weight:normal;font-stretch:normal;font-size:96px;font-family:sans-serif;-inkscape-font-specification:'sans-serif, Normal';font-variant-ligatures:normal;font-variant-caps:normal;font-variant-numeric:normal;font-feature-settings:normal;text-align:start;writing-mode:lr-tb;text-anchor:start;stroke-width:6">Optimal input trajectory (sample t)</tspan></text>
<text
         xml:space="preserve"
         style="font-style:normal;font-variant:normal;font-weight:normal;font-stretch:normal;font-size:96px;line-height:1.25;font-family:sans-serif;-inkscape-font-specification:'sans-serif, Normal';font-variant-ligatures:normal;font-variant-caps:normal;font-variant-numeric:normal;font-feature-settings:normal;text-align:start;letter-spacing:0px;word-spacing:0px;writing-mode:lr-tb;text-anchor:start;fill:#000000;fill-opacity:1;stroke:none;stroke-width:6"
         x="1981.9492"
         y="4345.5649"
         id="text1175-6-2"><tspan
           sodipodi:role="line"
           id="tspan1173-3-1"
           x="1981.9492"
           y="4345.5649"
           style="font-style:normal;font-variant:normal;font-weight:normal;font-stretch:normal;font-size:96px;font-family:sans-serif;-inkscape-font-specification:'sans-serif, Normal';font-variant-ligatures:normal;font-variant-caps:normal;font-variant-numeric:normal;font-feature-settings:normal;text-align:start;writing-mode:lr-tb;text-anchor:start;stroke-width:6">t</tspan></text>
<text
         xml:space="preserve"
         style="font-style:normal;font-variant:normal;font-weight:normal;font-stretch:normal;font-size:96px;line-height:1.25;font-family:sans-serif;-inkscape-font-specification:'sans-serif, Normal';font-variant-ligatures:normal;font-variant-caps:normal;font-variant-numeric:normal;font-feature-settings:normal;text-align:start;letter-spacing:0px;word-spacing:0px;writing-mode:lr-tb;text-anchor:start;fill:#000000;fill-opacity:1;stroke:none;stroke-width:6"
         x="2796.3518"
         y="4345.8472"
         id="text1175-4"><tspan
           sodipodi:role="line"
           id="tspan1173-6"
           x="2796.3518"
           y="4345.8472"
           style="font-style:normal;font-variant:normal;font-weight:normal;font-stretch:normal;font-size:96px;font-family:sans-serif;-inkscape-font-specification:'sans-serif, Normal';font-variant-ligatures:normal;font-variant-caps:normal;font-variant-numeric:normal;font-feature-settings:normal;text-align:start;writing-mode:lr-tb;text-anchor:start;stroke-width:6">t + m.h.</tspan></text>
<text
         xml:space="preserve"
         style="font-style:normal;font-variant:normal;font-weight:normal;font-stretch:normal;font-size:96px;line-height:1.25;font-family:sans-serif;-inkscape-font-specification:'sans-serif, Normal';font-variant-ligatures:normal;font-variant-caps:normal;font-variant-numeric:normal;font-feature-settings:normal;text-align:start;letter-spacing:0px;word-spacing:0px;writing-mode:lr-tb;text-anchor:start;fill:#000000;fill-opacity:1;stroke:none;stroke-width:6"
         x="3935.2549"
         y="4327.9917"
         id="text1175-4-3"><tspan
           sodipodi:role="line"
           id="tspan1173-6-0"
           x="3935.2549"
           y="4327.9917"
           style="font-style:normal;font-variant:normal;font-weight:normal;font-stretch:normal;font-size:96px;font-family:sans-serif;-inkscape-font-specification:'sans-serif, Normal';font-variant-ligatures:normal;font-variant-caps:normal;font-variant-numeric:normal;font-feature-settings:normal;text-align:start;writing-mode:lr-tb;text-anchor:start;stroke-width:6">t + p</tspan></text>
<path
         style="fill:none;stroke:#000000;stroke-width:6.23622064;stroke-linecap:butt;stroke-linejoin:miter;stroke-opacity:1;stroke-miterlimit:4;stroke-dasharray:none"
         d="m 2908.4848,4176.5978 -0.088,72.7907"
         id="path6378"
         inkscape:connector-curvature="0" /><path
         style="fill:none;stroke:#000000;stroke-width:6.23622036;stroke-linecap:butt;stroke-linejoin:miter;stroke-miterlimit:4;stroke-dasharray:none;stroke-opacity:1"
         d="m 4041.1769,4176.3646 -0.088,72.7907"
         id="path6378-8"
         inkscape:connector-curvature="0" /></g></g></svg>